<svg width="1440" height="320" viewBox="0 0 1440 320" fill="none" xmlns="http://www.w3.org/2000/svg">
<path d="M1440 200C1440 200 1208.03 214.06 1054.3 252.061C913.096 286.969 853.505 320.285 710.008 319.633C571.116 319.002 515.066 286.297 378.212 252.061C226.305 214.06 0 200 0 200L1440 200Z" fill="#5CD297"/>
<path d="M724.01 200.785C1019.21 199.421 1449 0 1449 0V200.785L724.01 200.785C721.987 200.794 719.97 200.794 717.959 200.785H0V0C0 0 427.556 199.429 717.959 200.785H724.01Z" fill="#5CD297"/>
<path d="M530.246 245.68C527.197 244.783 525.063 243.231 523.844 241.027C522.625 238.822 522.479 236.144 523.407 232.992L526.951 220.959L531.924 222.423L528.435 234.272C527.832 236.319 527.818 237.916 528.391 239.063C528.965 240.211 530.01 241.007 531.524 241.453C533.038 241.899 534.348 241.796 535.452 241.142C536.556 240.489 537.409 239.139 538.012 237.092L541.501 225.243L546.412 226.69L542.869 238.723C541.941 241.874 540.368 244.046 538.148 245.239C535.929 246.431 533.295 246.578 530.246 245.68ZM534.434 221.261L539.88 218.061L545.037 219.58L538.179 222.364L534.434 221.261Z" fill="white"/>
<path d="M550.775 251.027L556.185 229.29L561.215 230.542L556.825 248.18L567.725 250.893L566.705 254.992L550.775 251.027Z" fill="white"/>
<path d="M579.76 257.856L583.478 240.065L576.462 238.598L577.326 234.464L596.433 238.457L595.569 242.592L588.553 241.125L584.834 258.917L579.76 257.856Z" fill="white"/>
<path d="M599.847 261.818L603.747 239.76L608.852 240.663L604.952 262.721L599.847 261.818Z" fill="white"/>
<path d="M615.751 264.621L618.779 242.427L623.028 243.006L630.339 259.958L628.088 259.651L639.515 245.256L643.732 245.831L640.767 268.034L635.948 267.377L637.936 252.566L638.824 252.687L629.705 264.135L627.39 263.819L621.512 250.325L622.59 250.472L620.57 265.279L615.751 264.621Z" fill="white"/>
<path d="M648.714 268.927L660.577 247.462L665.678 247.9L673.742 271.074L668.322 270.609L661.851 250.205L663.892 250.38L654.007 269.381L648.714 268.927ZM654.099 264.571L655.806 260.767L667.284 261.752L668.35 265.794L654.099 264.571Z" fill="white"/>
<path d="M689.052 272.195C687.262 272.117 685.556 271.809 683.935 271.269C682.315 270.708 681.021 270.022 680.052 269.211L681.979 265.387C682.909 266.11 684.014 266.724 685.295 267.228C686.598 267.711 687.921 267.982 689.264 268.04C690.287 268.084 691.111 268.024 691.738 267.858C692.386 267.673 692.868 267.406 693.182 267.056C693.496 266.707 693.663 266.297 693.683 265.829C693.709 265.232 693.495 264.753 693.041 264.391C692.587 264.009 691.982 263.694 691.224 263.448C690.466 263.181 689.623 262.931 688.694 262.698C687.786 262.446 686.87 262.15 685.945 261.811C685.042 261.473 684.216 261.053 683.469 260.551C682.722 260.049 682.12 259.403 681.663 258.615C681.228 257.827 681.035 256.837 681.087 255.643C681.142 254.365 681.533 253.218 682.261 252.203C683.01 251.167 684.091 250.371 685.503 249.813C686.937 249.234 688.709 248.99 690.819 249.081C692.226 249.142 693.604 249.372 694.953 249.772C696.304 250.151 697.487 250.693 698.502 251.399L696.734 255.262C695.715 254.621 694.69 254.138 693.658 253.816C692.626 253.473 691.61 253.279 690.608 253.236C689.606 253.193 688.78 253.275 688.131 253.481C687.481 253.688 687.01 253.977 686.716 254.349C686.423 254.699 686.266 255.12 686.245 255.61C686.22 256.185 686.435 256.664 686.888 257.047C687.342 257.408 687.948 257.712 688.706 257.958C689.464 258.205 690.297 258.454 691.204 258.707C692.133 258.961 693.049 259.246 693.954 259.562C694.88 259.88 695.716 260.29 696.463 260.792C697.21 261.294 697.802 261.939 698.237 262.726C698.694 263.515 698.898 264.495 698.847 265.667C698.793 266.925 698.391 268.061 697.643 269.075C696.894 270.088 695.803 270.885 694.368 271.463C692.955 272.043 691.183 272.287 689.052 272.195Z" fill="white"/>
<path d="M722.944 272.514L722.435 250.12L726.722 250.022L740.301 265.846L738.222 265.893L737.855 249.769L742.974 249.653L743.483 272.047L739.228 272.144L725.617 256.321L727.697 256.274L728.063 272.398L722.944 272.514Z" fill="white"/>
<path d="M764.988 271.184C763.222 271.309 761.563 271.137 760.011 270.669C758.481 270.2 757.126 269.483 755.946 268.518C754.787 267.552 753.849 266.389 753.133 265.028C752.438 263.665 752.032 262.154 751.915 260.494C751.798 258.834 751.988 257.281 752.484 255.834C753.002 254.386 753.778 253.102 754.811 251.981C755.844 250.86 757.085 249.96 758.534 249.28C759.983 248.601 761.58 248.199 763.325 248.076C765.091 247.951 766.729 248.125 768.238 248.595C769.768 249.065 771.113 249.783 772.271 250.749C773.452 251.714 774.4 252.876 775.116 254.237C775.831 255.577 776.247 257.087 776.366 258.769C776.483 260.428 776.284 261.993 775.767 263.462C775.249 264.91 774.474 266.195 773.441 267.316C772.427 268.414 771.196 269.303 769.747 269.982C768.319 270.66 766.733 271.061 764.988 271.184ZM764.645 266.782C765.645 266.711 766.548 266.476 767.354 266.077C768.181 265.677 768.892 265.134 769.485 264.451C770.078 263.768 770.515 262.978 770.793 262.081C771.094 261.183 771.206 260.202 771.131 259.138C771.056 258.074 770.807 257.118 770.383 256.271C769.981 255.423 769.439 254.702 768.755 254.109C768.093 253.514 767.324 253.076 766.449 252.796C765.574 252.515 764.636 252.411 763.636 252.481C762.636 252.552 761.722 252.787 760.895 253.188C760.089 253.587 759.389 254.128 758.796 254.812C758.203 255.495 757.756 256.286 757.456 257.184C757.177 258.08 757.075 259.061 757.15 260.125C757.224 261.167 757.462 262.124 757.866 262.993C758.289 263.84 758.832 264.561 759.494 265.156C760.177 265.749 760.957 266.186 761.832 266.467C762.707 266.747 763.645 266.852 764.645 266.782Z" fill="white"/>
<path d="M790.775 268.476L788.714 250.418L781.592 251.23L781.113 247.034L800.507 244.82L800.986 249.017L793.864 249.83L795.925 267.889L790.775 268.476Z" fill="white"/>
<path d="M811.089 265.925L807.859 243.759L812.989 243.011L816.219 265.177L811.089 265.925ZM807.28 242L810.89 236.817L816.21 236.042L811.143 241.437L807.28 242Z" fill="white"/>
<path d="M837.656 262.004C835.955 262.312 834.321 262.325 832.753 262.045C831.202 261.74 829.798 261.17 828.541 260.334C827.285 259.499 826.227 258.444 825.368 257.168C824.53 255.889 823.961 254.42 823.661 252.762C823.361 251.103 823.38 249.528 823.717 248.036C824.076 246.541 824.697 245.182 825.582 243.96C826.488 242.734 827.616 241.717 828.966 240.909C830.312 240.081 831.846 239.511 833.567 239.2C835.477 238.855 837.26 238.879 838.913 239.274C840.585 239.644 842.061 240.375 843.342 241.466L840.613 245.081C839.702 244.356 838.746 243.868 837.747 243.615C836.743 243.341 835.696 243.303 834.604 243.5C833.576 243.686 832.661 244.025 831.861 244.516C831.061 245.007 830.403 245.625 829.887 246.369C829.371 247.112 829.013 247.947 828.811 248.872C828.631 249.793 828.636 250.779 828.825 251.828C829.015 252.878 829.356 253.803 829.847 254.603C830.359 255.399 830.987 256.055 831.731 256.571C832.475 257.087 833.307 257.435 834.229 257.616C835.15 257.796 836.125 257.793 837.154 257.607C838.245 257.41 839.215 257.018 840.063 256.431C840.907 255.824 841.627 255.01 842.224 253.992L846.045 256.423C845.227 257.894 844.101 259.105 842.669 260.058C841.258 261.006 839.587 261.655 837.656 262.004Z" fill="white"/>
<path d="M855.646 258.069L850.913 236.175L855.98 235.08L860.713 256.974L855.646 258.069Z" fill="white"/>
<path d="M868.545 255.325L872.732 231.161L877.696 229.905L892.899 249.165L887.625 250.499L874.834 233.336L876.819 232.834L873.695 254.022L868.545 255.325ZM872.208 249.447L872.577 245.294L883.745 242.469L886.075 245.94L872.208 249.447Z" fill="white"/>
<path d="M907.732 245.215C906.015 245.727 904.302 245.994 902.594 246.014C900.879 246.014 899.432 245.789 898.252 245.34L898.821 241.096C899.936 241.475 901.181 241.694 902.556 241.751C903.946 241.781 905.285 241.604 906.572 241.219C907.554 240.926 908.313 240.599 908.851 240.238C909.403 239.851 909.771 239.441 909.953 239.008C910.135 238.575 910.159 238.133 910.025 237.684C909.854 237.111 909.495 236.729 908.948 236.536C908.394 236.323 907.719 236.224 906.922 236.239C906.119 236.234 905.24 236.274 904.286 236.358C903.346 236.416 902.384 236.437 901.399 236.419C900.434 236.395 899.517 236.268 898.647 236.038C897.777 235.808 896.997 235.396 896.307 234.8C895.637 234.198 895.132 233.325 894.79 232.181C894.424 230.954 894.418 229.742 894.773 228.545C895.143 227.322 895.903 226.215 897.055 225.226C898.221 224.21 899.816 223.4 901.839 222.795C903.189 222.393 904.566 222.159 905.972 222.096C907.372 222.012 908.667 222.137 909.858 222.472L909.451 226.701C908.278 226.428 907.152 226.308 906.071 226.341C904.984 226.354 903.96 226.504 902.999 226.791C902.038 227.077 901.285 227.425 900.739 227.833C900.193 228.241 899.842 228.668 899.686 229.116C899.524 229.543 899.513 229.991 899.653 230.461C899.818 231.013 900.177 231.396 900.731 231.609C901.278 231.802 901.95 231.891 902.747 231.875C903.544 231.86 904.413 231.823 905.353 231.765C906.313 231.701 907.272 231.671 908.231 231.674C909.21 231.671 910.134 231.785 911.004 232.015C911.874 232.245 912.644 232.661 913.314 233.262C914.003 233.858 914.516 234.718 914.852 235.842C915.212 237.048 915.204 238.252 914.829 239.456C914.453 240.659 913.683 241.768 912.517 242.784C911.371 243.794 909.776 244.604 907.732 245.215Z" fill="white"/>
</svg>
